HIERARCHY
ROOT Hips
{
	OFFSET 0.000000 0.000000 0.000000
	CHANNELS 6 Xposition Yposition Zposition Xrotation Yrotation Zrotation
	JOINT LeftUpLeg_virtual
	{
		OFFSET 0.000000 0.000000 0.000000
		CHANNELS 3 Xrotation Yrotation Zrotation
		JOINT LeftUpLeg
		{
			OFFSET 15.427100 -6.655098 0.678600
			CHANNELS 3 Xrotation Yrotation Zrotation
			JOINT LeftLeg
			{
				OFFSET 4.081073 -39.591068 13.024000
				CHANNELS 3 Xrotation Yrotation Zrotation
				JOINT LeftFoot
				{
					OFFSET -4.081074 -37.707932 -15.979700
					CHANNELS 3 Xrotation Yrotation Zrotation
					JOINT LeftToeBase
					{
						OFFSET 5.346399 -15.068900 20.645000
						CHANNELS 3 Xrotation Yrotation Zrotation
						JOINT LeftToe_End
						{
							OFFSET 2.754700 0.931300 11.300900
							CHANNELS 3 Xrotation Yrotation Zrotation
							End Site
							{
								OFFSET 0 0 0
							}
						}
					}
				}
			}
		}
	}
	JOINT RightUpLeg_virtual
	{
		OFFSET 0.000000 0.000000 0.000000
		CHANNELS 3 Xrotation Yrotation Zrotation
		JOINT RightUpLeg
		{
			OFFSET -15.569500 -6.655098 0.678600
			CHANNELS 3 Xrotation Yrotation Zrotation
			JOINT RightLeg
			{
				OFFSET -4.081825 -39.591045 13.023800
				CHANNELS 3 Xrotation Yrotation Zrotation
				JOINT RightFoot
				{
					OFFSET 4.081824 -37.707954 -15.979600
					CHANNELS 3 Xrotation Yrotation Zrotation
					JOINT RightToeBase
					{
						OFFSET -5.346400 -15.068900 20.645000
						CHANNELS 3 Xrotation Yrotation Zrotation
						JOINT RightToe_End
						{
							OFFSET -2.754700 0.931300 11.300900
							CHANNELS 3 Xrotation Yrotation Zrotation
							End Site
							{
								OFFSET 0 0 0
							}
						}
					}
				}
			}
		}
	}
	JOINT Spine_virtual
	{
		OFFSET 0.000000 0.000000 0.000000
		CHANNELS 3 Xrotation Yrotation Zrotation
		JOINT Spine
		{
			OFFSET -0.279200 12.230698 -2.892100
			CHANNELS 3 Xrotation Yrotation Zrotation
			JOINT Spine1
			{
				OFFSET -0.232667 10.192268 -1.242267
				CHANNELS 3 Xrotation Yrotation Zrotation
				JOINT Spine1_split
				{
					OFFSET -0.232667 10.192268 -1.242267
					CHANNELS 3 Xrotation Yrotation Zrotation
					JOINT Spine2
					{
						OFFSET -0.232667 10.192268 -1.242267
						CHANNELS 3 Xrotation Yrotation Zrotation
						JOINT Neck_virtual
						{
							OFFSET 0.000000 0.000000 0.000000
							CHANNELS 3 Xrotation Yrotation Zrotation
							JOINT Neck
							{
								OFFSET -0.418800 17.814194 8.416900
								CHANNELS 3 Xrotation Yrotation Zrotation
								JOINT Head
								{
									OFFSET 0.000000 7.031097 3.806800
									CHANNELS 3 Xrotation Yrotation Zrotation
									JOINT HeadTop_End
									{
										OFFSET 0.000000 24.646606 12.978600
										CHANNELS 3 Xrotation Yrotation Zrotation
										End Site
										{
											OFFSET 0 0 0
										}
									}
								}
							}
						}
						JOINT LeftShoulder_virtual
						{
							OFFSET 0.000000 0.000000 0.000000
							CHANNELS 3 Xrotation Yrotation Zrotation
							JOINT LeftShoulder
							{
								OFFSET 8.476499 7.247704 -3.868750
								CHANNELS 3 Xrotation Yrotation Zrotation
								JOINT LeftShoulder_split
								{
									OFFSET 8.476499 7.247704 -3.868750
									CHANNELS 3 Xrotation Yrotation Zrotation
									JOINT LeftArm
									{
										OFFSET 9.308998 -2.777710 0.208600
										CHANNELS 3 Xrotation Yrotation Zrotation
										JOINT LeftForeArm
										{
											OFFSET 29.972298 0.000000 0.000000
											CHANNELS 3 Xrotation Yrotation Zrotation
											JOINT LeftHand
											{
												OFFSET 26.026505 0.000000 0.000000
												CHANNELS 3 Xrotation Yrotation Zrotation
												End Site
												{
													OFFSET 0 0 0
												}
											}
										}
									}
								}
							}
						}
						JOINT RightShoulder_virtual
						{
							OFFSET 0.000000 0.000000 0.000000
							CHANNELS 3 Xrotation Yrotation Zrotation
							JOINT RightShoulder
							{
								OFFSET -7.570500 7.247704 -3.868750
								CHANNELS 3 Xrotation Yrotation Zrotation
								JOINT RightShoulder_split
								{
									OFFSET -7.570500 7.247704 -3.868750
									CHANNELS 3 Xrotation Yrotation Zrotation
									JOINT RightArm
									{
										OFFSET -9.308998 -2.777710 0.208500
										CHANNELS 3 Xrotation Yrotation Zrotation
										JOINT RightForeArm
										{
											OFFSET -29.972300 0.000000 0.000000
											CHANNELS 3 Xrotation Yrotation Zrotation
											JOINT RightHand
											{
												OFFSET -26.026505 0.000000 0.000000
												CHANNELS 3 Xrotation Yrotation Zrotation
												End Site
												{
													OFFSET 0 0 0
												}
											}
										}
									}
								}
							}
						}
					}
				}
			}
		}
	}
}
MOTION
Frames: 5
Frame Time: 0.03333333
1.926713 71.166557 -9.559460 0.000000 0.000000 0.000000 -0.018552 -38.682274 4.475126 -32.839474 5.375375 22.010131 53.537386 -13.130193 3.459554 -19.069446 -8.534410 -17.920243 0.294190 -3.146436 -1.368101 0.000000 0.000000 0.000000 -0.022570 -36.987199 4.434567 -18.235640 -15.518787 -29.883106 54.659736 14.345945 -7.774232 -29.626810 -28.570408 34.919595 5.420643 12.219100 -14.707054 0.000000 0.000000 0.000000 -1.728292 -34.396156 2.721972 3.219813 6.561350 -1.714233 1.450074 -0.461033 -0.756581 0.035045 -0.053930 0.130046 0.000000 0.000000 0.000000 5.931314 1.943321 0.699242 3.393868 17.078553 -2.243076 -15.698763 6.302981 -27.590032 0.000000 0.000000 0.000000 3.467176 -0.208865 -1.109193 0.990615 9.547014 -5.967950 3.568538 -6.825702 6.290673 -59.045414 4.705095 -56.797114 133.761578 -74.813015 129.395407 0.000000 0.000000 0.000000 3.301116 -0.639908 1.055751 -6.854225 -0.415284 -8.593207 -6.801766 -1.750415 -0.398631 -43.617919 27.585729 94.709473 -146.771217 72.256148 145.350046 0.000000 0.000000 0.000000 
1.930682 71.417511 -8.541100 0.000000 0.000000 0.000000 -0.089883 -39.159322 4.613562 -32.862082 6.428603 22.074628 52.572615 -13.356201 3.319772 -18.460953 -8.705633 -18.083146 -0.631787 -3.098625 -0.953152 0.000000 0.000000 0.000000 -0.027093 -37.751367 4.469041 -19.452165 -16.516716 -30.880856 54.697186 14.557939 -6.973595 -29.534462 -27.178209 31.860275 8.023594 12.015683 -14.576489 0.000000 0.000000 0.000000 -1.126432 -33.976496 3.163578 3.544001 6.688483 -2.010576 1.463800 -0.356410 -0.734759 0.103755 -0.072193 0.115121 0.000000 0.000000 0.000000 5.974013 2.070903 0.553654 3.333531 16.995556 -2.247639 -15.625741 6.431151 -27.366348 0.000000 0.000000 0.000000 3.730127 -0.202929 -0.991559 0.806425 8.242809 -5.272636 3.749336 -6.102204 5.550187 -60.059855 5.526472 -56.217590 130.209019 -75.306114 125.936421 0.000000 0.000000 0.000000 3.472403 -0.538559 1.031659 -6.757738 0.188823 -8.490215 -6.378614 -1.014961 0.138180 -43.923386 27.955525 94.912117 -146.741382 72.589038 145.449903 0.000000 0.000000 0.000000 
1.817990 72.132599 -7.460274 0.000000 0.000000 0.000000 0.377581 -39.224096 5.215951 -32.858739 7.648098 21.782170 51.032452 -13.499515 3.256505 -17.512883 -9.182157 -17.973153 -1.760642 -2.988879 -0.442010 0.000000 0.000000 0.000000 0.452242 -38.265411 5.018698 -22.399935 -16.411247 -32.954888 55.959603 15.491962 -6.132448 -24.899711 -24.205642 31.444695 3.147394 12.505203 -13.112973 0.000000 0.000000 0.000000 -0.480463 -32.790440 3.879855 3.988153 6.893617 -2.505494 1.410851 -0.177944 -0.752282 0.103494 -0.185365 0.101576 0.000000 0.000000 0.000000 6.025559 2.256360 0.418530 3.196121 16.887358 -1.950072 -15.789744 6.050291 -27.185080 0.000000 0.000000 0.000000 3.897399 -0.090153 -0.827725 0.620076 6.616436 -4.240422 4.293942 -5.551311 4.139126 -62.597413 6.440936 -54.381597 129.913299 -75.329193 125.777059 0.000000 0.000000 0.000000 3.532938 -0.442461 0.939500 -6.637075 1.188828 -8.520798 -5.837848 -1.413195 0.379987 -45.241964 28.078945 94.976758 -145.224179 73.470733 144.098195 0.000000 0.000000 0.000000 
1.539352 73.221390 -6.580715 0.000000 0.000000 0.000000 1.286110 -38.444751 6.037582 -32.731441 8.659634 21.124175 49.007902 -13.252548 3.176581 -16.746437 -9.554365 -17.507050 -1.470705 -2.769428 -0.394623 0.000000 0.000000 0.000000 1.482981 -37.843151 5.961866 -25.622912 -15.202447 -35.203085 57.466903 16.719584 -5.535430 -19.189212 -20.833156 31.356565 -5.801913 12.880091 -10.617573 0.000000 0.000000 0.000000 0.342330 -31.129222 4.761082 4.323901 7.101778 -3.068115 1.292423 0.000139 -0.759505 0.020520 -0.343121 0.128526 0.000000 0.000000 0.000000 6.078767 2.445743 0.371430 3.063841 16.812439 -1.433272 -16.274848 5.275240 -27.070299 0.000000 0.000000 0.000000 3.953390 0.078970 -0.580105 0.499190 4.952583 -3.046786 5.077809 -5.359653 2.438644 -66.215399 7.170642 -51.438192 132.776227 -75.025803 128.830086 0.000000 0.000000 0.000000 3.445879 -0.410790 0.837666 -6.474861 2.472507 -8.802632 -5.542995 -2.734567 0.284927 -47.581164 27.710224 95.023511 -141.727341 74.845213 140.727674 0.000000 0.000000 0.000000 
1.024197 74.546425 -6.005978 0.000000 0.000000 0.000000 2.276349 -36.722683 6.730428 -32.647355 9.102783 20.289512 46.569831 -12.538329 3.012176 -16.144267 -9.766902 -16.881989 0.404838 -2.482463 -0.903663 0.000000 0.000000 0.000000 2.592322 -36.662386 6.868627 -28.252435 -13.406402 -36.768011 58.545294 17.289480 -5.092627 -15.075945 -18.587976 29.377422 -12.092398 12.381297 -8.166389 0.000000 0.000000 0.000000 1.462773 -29.171543 5.630110 4.436661 7.248923 -3.561680 1.129904 0.089180 -0.706547 -0.027714 -0.468746 0.147432 0.000000 0.000000 0.000000 6.113134 2.558153 0.462331 3.093320 16.784814 -0.835240 -17.014735 4.352843 -26.973313 0.000000 0.000000 0.000000 3.929623 0.226824 -0.241950 0.512236 3.596816 -1.945338 5.508255 -5.379870 1.060389 -70.386015 7.438145 -47.894851 137.435004 -74.512207 133.724626 0.000000 0.000000 0.000000 3.230489 -0.500353 0.793787 -6.244564 3.938142 -9.313196 -5.555977 -4.014766 0.010300 -50.816734 26.555764 95.156174 -135.897269 76.349111 134.948173 0.000000 0.000000 0.000000 
